<?xml version="1.0" encoding="UTF-8"?>
<svg id="Layer_2" data-name="Layer 2" xmlns="http://www.w3.org/2000/svg" viewBox="0 0 80.6 36">
  <defs>
    <style>
      .cls-1 {
        fill: #e0e0e0;
        stroke-width: 0px;
      }
    </style>
  </defs>
  <g id="Layer_3" data-name="Layer 3">
    <g>
      <rect class="cls-1" x="42.31" y="12.83" width="11.03" height="23.17"/>
      <rect class="cls-1" x="55.94" y="12.83" width="11.03" height="12.33"/>
      <rect class="cls-1" x="69.58" y="12.83" width="11.03" height="23.17"/>
      <path class="cls-1" d="M11.03,10.72c-.16.18-.27.4-.31.63-.13.76.47,1.49,1.24,1.49h28.21v10.32H11.91c-3.58,0-6.79-1.55-8.97-3.99-.65-.72-1.21-1.52-1.65-2.38C-.87,12.82-.22,7.8,2.56,4.31c.46-.56.96-1.07,1.5-1.54.55-.47,1.14-.88,1.76-1.24.63-.37,1.3-.67,1.98-.9C9.69-.01,11.75,0,13.73,0h66.87s0,10.29-.02,10.29c-.02,0-.04,0-.06,0-.03,0-.06,0-.09,0-.04,0-.08,0-.13,0-.05,0-.11,0-.16,0-.07,0-.13,0-.2,0-.08,0-.15,0-.23,0-.09,0-.18,0-.26,0-.1,0-.2,0-.29,0-.11,0-.22,0-.33,0-.12,0-.24,0-.36,0-.13,0-.26,0-.39,0-.14,0-.28,0-.42,0-.15,0-.3,0-.45,0-.16,0-.32,0-.47,0-.17,0-.33,0-.5,0-.18,0-.35,0-.53,0-.18,0-.37,0-.55,0s-.39,0-.58,0-.4,0-.61,0-.42,0-.63,0-.44,0-.65,0-.45,0-.68,0-.47,0-.7,0-.48,0-.72,0-.49,0-.74,0-.51,0-.76,0-.52,0-.78,0-.53,0-.8,0-.55,0-.82,0-.56,0-.84,0-.57,0-.85,0-.58,0-.87,0-.59,0-.89,0-.6,0-.9,0-.61,0-.91,0-.62,0-.93,0-.63,0-.94,0-.64,0-.95,0-.64,0-.97,0-.65,0-.98,0-.66,0-.99,0-.66,0-1,0-.67,0-1.01,0-.68,0-1.01,0-.68,0-1.02,0-.69,0-1.03,0-.69,0-1.04,0-.69,0-1.04,0-.7,0-1.05,0-.7,0-1.05,0-.7,0-1.05,0-.71,0-1.06,0-.71,0-1.06,0-.71,0-1.06,0-.71,0-1.06,0-.71,0-1.06,0-.71,0-1.06,0-.71,0-1.06,0-.71,0-1.06,0-.71,0-1.06,0-.7,0-1.06,0-.7,0-1.05,0-.7,0-1.05,0-.7,0-1.04,0-.69,0-1.04,0-.69,0-1.03,0-.68,0-1.03,0-.68,0-1.02,0-.67,0-1.01,0-.67,0-1,0-.66,0-.99,0-.65,0-.98,0-.65,0-.97,0-.64,0-.96,0-.63,0-.95,0-.62,0-.94,0-.61,0-.92,0-.61,0-.91,0-.6,0-.89,0-.59,0-.88,0-.57,0-.86,0-.56,0-.85,0-.55,0-.83,0c-.53,0-1.05-.01-1.58,0-.07,0-.13,0-.2.01-.15.02-.3.06-.43.14-.06.04-.13.08-.18.12-.03.02-.06.05-.08.07-.01.01-.07.06-.07.08Z"/>
      <rect class="cls-1" x="14.93" y="10.75" width="10.32" height="40.18" transform="translate(-10.75 50.93) rotate(-90)"/>
    </g>
  </g>
</svg>