<svg id="Layer_1" data-name="Layer 1" xmlns="http://www.w3.org/2000/svg" viewBox="0 0 379.94 151.06"><defs><style>.cls-1{fill:#fff;}</style></defs><path class="cls-1" d="M76.67,127a105.12,105.12,0,0,0-29.44,4.15c-17.91,5.29-31.7,15.3-37.47,27.57a29.27,29.27,0,0,0-2.88,12.47v6.42a29.26,29.26,0,0,0,2.88,12.46c8.65,18.31,35.41,31.53,66.91,31.53H209V182.7H82.84c-16.47,0-16.47-16.8,0-16.8H209V127Zm-57,111.41a13.18,13.18,0,0,0-9.88,4.34,10,10,0,0,0-2.88,7.18V266c0,6.42,5.76,11.52,12.76,11.52H209V238.41Z" transform="translate(-6.88 -127)"/><rect class="cls-1" x="220.35" width="41.17" height="151.06"/><rect class="cls-1" y="109.89" width="202.16" height="41.17"/><rect class="cls-1" x="279.72" width="41.17" height="94.41"/><rect class="cls-1" x="338.77" width="41.17" height="151.06"/></svg>